<mxfile host="app.diagrams.net" agent="Mozilla/5.0 (Windows NT 10.0; Win64; x64) AppleWebKit/537.36 (KHTML, like Gecko) Chrome/135.0.0.0 Safari/537.36" version="26.2.14">
  <diagram name="Page-1" id="2YBvvXClWsGukQMizWep">
    <mxGraphModel dx="631" dy="588" grid="1" gridSize="10" guides="1" tooltips="1" connect="1" arrows="1" fold="1" page="1" pageScale="1" pageWidth="1100" pageHeight="850" math="0" shadow="0">
      <root>
        <mxCell id="0" />
        <mxCell id="1" parent="0" />
        <mxCell id="1x29o_3ZwKhWgOv2N2SG-2" value="用户" style="shape=umlLifeline;perimeter=lifelinePerimeter;whiteSpace=wrap;html=1;container=1;dropTarget=0;collapsible=0;recursiveResize=0;outlineConnect=0;portConstraint=eastwest;newEdgeStyle={&quot;curved&quot;:0,&quot;rounded&quot;:0};fontFamily=宋体;fontSize=14;" vertex="1" parent="1">
          <mxGeometry x="30" y="50" width="80" height="460" as="geometry" />
        </mxCell>
        <mxCell id="1x29o_3ZwKhWgOv2N2SG-4" value="" style="html=1;points=[[0,0,0,0,5],[0,1,0,0,-5],[1,0,0,0,5],[1,1,0,0,-5]];perimeter=orthogonalPerimeter;outlineConnect=0;targetShapes=umlLifeline;portConstraint=eastwest;newEdgeStyle={&quot;curved&quot;:0,&quot;rounded&quot;:0};fontFamily=宋体;fontSize=14;" vertex="1" parent="1x29o_3ZwKhWgOv2N2SG-2">
          <mxGeometry x="35" y="50" width="10" height="380" as="geometry" />
        </mxCell>
        <mxCell id="1x29o_3ZwKhWgOv2N2SG-3" value="父组件" style="shape=umlLifeline;perimeter=lifelinePerimeter;whiteSpace=wrap;html=1;container=1;dropTarget=0;collapsible=0;recursiveResize=0;outlineConnect=0;portConstraint=eastwest;newEdgeStyle={&quot;curved&quot;:0,&quot;rounded&quot;:0};fontFamily=宋体;fontSize=14;" vertex="1" parent="1">
          <mxGeometry x="160" y="50" width="80" height="460" as="geometry" />
        </mxCell>
        <mxCell id="1x29o_3ZwKhWgOv2N2SG-5" value="" style="html=1;points=[[0,0,0,0,5],[0,1,0,0,-5],[1,0,0,0,5],[1,1,0,0,-5]];perimeter=orthogonalPerimeter;outlineConnect=0;targetShapes=umlLifeline;portConstraint=eastwest;newEdgeStyle={&quot;curved&quot;:0,&quot;rounded&quot;:0};fontFamily=宋体;fontSize=14;" vertex="1" parent="1x29o_3ZwKhWgOv2N2SG-3">
          <mxGeometry x="35" y="50" width="10" height="380" as="geometry" />
        </mxCell>
        <mxCell id="1x29o_3ZwKhWgOv2N2SG-6" value="表格组件&lt;div&gt;DataTable&lt;/div&gt;" style="shape=umlLifeline;perimeter=lifelinePerimeter;whiteSpace=wrap;html=1;container=1;dropTarget=0;collapsible=0;recursiveResize=0;outlineConnect=0;portConstraint=eastwest;newEdgeStyle={&quot;curved&quot;:0,&quot;rounded&quot;:0};fontFamily=宋体;fontSize=14;" vertex="1" parent="1">
          <mxGeometry x="310" y="50" width="80" height="460" as="geometry" />
        </mxCell>
        <mxCell id="1x29o_3ZwKhWgOv2N2SG-7" value="" style="html=1;points=[[0,0,0,0,5],[0,1,0,0,-5],[1,0,0,0,5],[1,1,0,0,-5]];perimeter=orthogonalPerimeter;outlineConnect=0;targetShapes=umlLifeline;portConstraint=eastwest;newEdgeStyle={&quot;curved&quot;:0,&quot;rounded&quot;:0};fontFamily=宋体;fontSize=14;" vertex="1" parent="1x29o_3ZwKhWgOv2N2SG-6">
          <mxGeometry x="35" y="50" width="10" height="380" as="geometry" />
        </mxCell>
        <mxCell id="1x29o_3ZwKhWgOv2N2SG-8" value="后端API" style="shape=umlLifeline;perimeter=lifelinePerimeter;whiteSpace=wrap;html=1;container=1;dropTarget=0;collapsible=0;recursiveResize=0;outlineConnect=0;portConstraint=eastwest;newEdgeStyle={&quot;curved&quot;:0,&quot;rounded&quot;:0};fontFamily=宋体;fontSize=14;" vertex="1" parent="1">
          <mxGeometry x="465" y="50" width="80" height="460" as="geometry" />
        </mxCell>
        <mxCell id="1x29o_3ZwKhWgOv2N2SG-9" value="" style="html=1;points=[[0,0,0,0,5],[0,1,0,0,-5],[1,0,0,0,5],[1,1,0,0,-5]];perimeter=orthogonalPerimeter;outlineConnect=0;targetShapes=umlLifeline;portConstraint=eastwest;newEdgeStyle={&quot;curved&quot;:0,&quot;rounded&quot;:0};fontFamily=宋体;fontSize=14;" vertex="1" parent="1x29o_3ZwKhWgOv2N2SG-8">
          <mxGeometry x="35" y="50" width="10" height="380" as="geometry" />
        </mxCell>
        <mxCell id="1x29o_3ZwKhWgOv2N2SG-13" value="查询操作" style="rounded=0;whiteSpace=wrap;html=1;fontSize=14;fontFamily=宋体;" vertex="1" parent="1">
          <mxGeometry x="60" y="258" width="150" height="20" as="geometry" />
        </mxCell>
        <mxCell id="1x29o_3ZwKhWgOv2N2SG-14" value="" style="endArrow=classic;html=1;rounded=0;fontSize=14;fontFamily=宋体;" edge="1" parent="1">
          <mxGeometry width="50" height="50" relative="1" as="geometry">
            <mxPoint x="205" y="150" as="sourcePoint" />
            <mxPoint x="345.5" y="150" as="targetPoint" />
          </mxGeometry>
        </mxCell>
        <mxCell id="1x29o_3ZwKhWgOv2N2SG-15" value="传入props配置&lt;div&gt;（url, column）&lt;/div&gt;" style="text;html=1;align=center;verticalAlign=middle;whiteSpace=wrap;rounded=0;fontSize=14;fontFamily=宋体;" vertex="1" parent="1">
          <mxGeometry x="222" y="120" width="110" height="26" as="geometry" />
        </mxCell>
        <mxCell id="1x29o_3ZwKhWgOv2N2SG-35" value="初始化阶段" style="rounded=0;whiteSpace=wrap;html=1;fontSize=14;fontFamily=宋体;" vertex="1" parent="1">
          <mxGeometry x="60" y="120" width="150" height="20" as="geometry" />
        </mxCell>
        <mxCell id="1x29o_3ZwKhWgOv2N2SG-49" value="" style="group" vertex="1" connectable="0" parent="1">
          <mxGeometry x="354" y="189" width="145" height="26" as="geometry" />
        </mxCell>
        <mxCell id="1x29o_3ZwKhWgOv2N2SG-24" value="" style="endArrow=classic;html=1;rounded=0;" edge="1" parent="1x29o_3ZwKhWgOv2N2SG-49">
          <mxGeometry width="50" height="50" relative="1" as="geometry">
            <mxPoint x="145" y="25" as="sourcePoint" />
            <mxPoint y="25" as="targetPoint" />
          </mxGeometry>
        </mxCell>
        <mxCell id="1x29o_3ZwKhWgOv2N2SG-33" value="返回初始数据" style="text;html=1;align=center;verticalAlign=middle;whiteSpace=wrap;rounded=0;fontSize=14;fontFamily=宋体;spacing=0;" vertex="1" parent="1x29o_3ZwKhWgOv2N2SG-49">
          <mxGeometry x="19" width="110" height="26" as="geometry" />
        </mxCell>
        <mxCell id="1x29o_3ZwKhWgOv2N2SG-50" value="" style="group" vertex="1" connectable="0" parent="1">
          <mxGeometry x="355" y="380" width="145" height="26" as="geometry" />
        </mxCell>
        <mxCell id="1x29o_3ZwKhWgOv2N2SG-51" value="" style="endArrow=classic;html=1;rounded=0;" edge="1" parent="1x29o_3ZwKhWgOv2N2SG-50">
          <mxGeometry width="50" height="50" relative="1" as="geometry">
            <mxPoint x="145" y="25" as="sourcePoint" />
            <mxPoint y="25" as="targetPoint" />
          </mxGeometry>
        </mxCell>
        <mxCell id="1x29o_3ZwKhWgOv2N2SG-52" value="返回查询结果" style="text;html=1;align=center;verticalAlign=middle;whiteSpace=wrap;rounded=0;fontSize=14;fontFamily=宋体;spacing=0;" vertex="1" parent="1x29o_3ZwKhWgOv2N2SG-50">
          <mxGeometry x="19" width="110" height="26" as="geometry" />
        </mxCell>
        <mxCell id="1x29o_3ZwKhWgOv2N2SG-53" value="" style="group" vertex="1" connectable="0" parent="1">
          <mxGeometry x="355" y="133" width="145" height="43" as="geometry" />
        </mxCell>
        <mxCell id="1x29o_3ZwKhWgOv2N2SG-20" value="" style="endArrow=classic;html=1;rounded=0;fontSize=14;fontFamily=宋体;" edge="1" parent="1x29o_3ZwKhWgOv2N2SG-53">
          <mxGeometry width="50" height="50" relative="1" as="geometry">
            <mxPoint y="43" as="sourcePoint" />
            <mxPoint x="145" y="43" as="targetPoint" />
          </mxGeometry>
        </mxCell>
        <mxCell id="1x29o_3ZwKhWgOv2N2SG-21" value="fetchDataList()&lt;div&gt;POST请求&lt;div&gt;(url,分页参数)&lt;/div&gt;&lt;/div&gt;" style="text;html=1;align=center;verticalAlign=middle;whiteSpace=wrap;rounded=0;fontSize=14;fontFamily=宋体;" vertex="1" parent="1x29o_3ZwKhWgOv2N2SG-53">
          <mxGeometry x="20" width="110" height="26" as="geometry" />
        </mxCell>
        <mxCell id="1x29o_3ZwKhWgOv2N2SG-54" value="" style="group" vertex="1" connectable="0" parent="1">
          <mxGeometry x="204.75" y="210" width="127" height="26" as="geometry" />
        </mxCell>
        <mxCell id="1x29o_3ZwKhWgOv2N2SG-25" value="渲染初始表格" style="text;html=1;align=center;verticalAlign=middle;whiteSpace=wrap;rounded=0;fontSize=14;fontFamily=宋体;" vertex="1" parent="1x29o_3ZwKhWgOv2N2SG-54">
          <mxGeometry x="17" width="110" height="26" as="geometry" />
        </mxCell>
        <mxCell id="1x29o_3ZwKhWgOv2N2SG-34" value="" style="endArrow=classic;html=1;rounded=0;" edge="1" parent="1x29o_3ZwKhWgOv2N2SG-54" source="1x29o_3ZwKhWgOv2N2SG-7">
          <mxGeometry width="50" height="50" relative="1" as="geometry">
            <mxPoint x="135" y="22" as="sourcePoint" />
            <mxPoint y="22" as="targetPoint" />
          </mxGeometry>
        </mxCell>
        <mxCell id="1x29o_3ZwKhWgOv2N2SG-55" value="" style="group" vertex="1" connectable="0" parent="1">
          <mxGeometry x="85" y="300" width="100" height="65" as="geometry" />
        </mxCell>
        <mxCell id="1x29o_3ZwKhWgOv2N2SG-39" value="填写查询条件(where)" style="text;html=1;align=center;verticalAlign=middle;whiteSpace=wrap;rounded=0;fontFamily=宋体;fontSize=14;fontColor=default;" vertex="1" parent="1x29o_3ZwKhWgOv2N2SG-55">
          <mxGeometry width="100" height="30" as="geometry" />
        </mxCell>
        <mxCell id="1x29o_3ZwKhWgOv2N2SG-40" value="点击搜索" style="text;html=1;align=center;verticalAlign=middle;whiteSpace=wrap;rounded=0;fontFamily=宋体;fontSize=14;fontColor=default;spacing=0;" vertex="1" parent="1x29o_3ZwKhWgOv2N2SG-55">
          <mxGeometry y="35" width="100" height="30" as="geometry" />
        </mxCell>
        <mxCell id="1x29o_3ZwKhWgOv2N2SG-37" value="" style="endArrow=classic;html=1;rounded=0;" edge="1" parent="1x29o_3ZwKhWgOv2N2SG-55">
          <mxGeometry width="50" height="50" relative="1" as="geometry">
            <mxPoint x="-10" y="35" as="sourcePoint" />
            <mxPoint x="110" y="35" as="targetPoint" />
          </mxGeometry>
        </mxCell>
        <mxCell id="1x29o_3ZwKhWgOv2N2SG-56" value="" style="group" vertex="1" connectable="0" parent="1">
          <mxGeometry x="204.75" y="330" width="140.5" height="26" as="geometry" />
        </mxCell>
        <mxCell id="1x29o_3ZwKhWgOv2N2SG-41" value="" style="endArrow=classic;html=1;rounded=0;fontSize=14;fontFamily=宋体;" edge="1" parent="1x29o_3ZwKhWgOv2N2SG-56">
          <mxGeometry width="50" height="50" relative="1" as="geometry">
            <mxPoint y="25" as="sourcePoint" />
            <mxPoint x="140.5" y="25" as="targetPoint" />
          </mxGeometry>
        </mxCell>
        <mxCell id="1x29o_3ZwKhWgOv2N2SG-42" value="触发reload方法" style="text;html=1;align=center;verticalAlign=middle;whiteSpace=wrap;rounded=0;fontSize=14;fontFamily=宋体;" vertex="1" parent="1x29o_3ZwKhWgOv2N2SG-56">
          <mxGeometry x="16.25" width="110" height="26" as="geometry" />
        </mxCell>
        <mxCell id="1x29o_3ZwKhWgOv2N2SG-57" value="" style="group" vertex="1" connectable="0" parent="1">
          <mxGeometry x="355.5" y="330" width="145" height="40" as="geometry" />
        </mxCell>
        <mxCell id="1x29o_3ZwKhWgOv2N2SG-45" value="" style="endArrow=classic;html=1;rounded=0;fontSize=14;fontFamily=宋体;" edge="1" parent="1x29o_3ZwKhWgOv2N2SG-57">
          <mxGeometry width="50" height="50" relative="1" as="geometry">
            <mxPoint y="40" as="sourcePoint" />
            <mxPoint x="145" y="40" as="targetPoint" />
          </mxGeometry>
        </mxCell>
        <mxCell id="1x29o_3ZwKhWgOv2N2SG-46" value="reload(where)&lt;div&gt;重置页码为1&lt;/div&gt;&lt;div&gt;POST请求&lt;/div&gt;" style="text;html=1;align=center;verticalAlign=middle;whiteSpace=wrap;rounded=0;fontSize=14;fontFamily=宋体;" vertex="1" parent="1x29o_3ZwKhWgOv2N2SG-57">
          <mxGeometry x="17" width="110" height="26" as="geometry" />
        </mxCell>
        <mxCell id="1x29o_3ZwKhWgOv2N2SG-74" value="" style="group" vertex="1" connectable="0" parent="1">
          <mxGeometry x="214.20472440944883" y="410" width="130.36220472440942" height="26" as="geometry" />
        </mxCell>
        <mxCell id="1x29o_3ZwKhWgOv2N2SG-62" value="更新表格显示" style="text;html=1;align=center;verticalAlign=middle;whiteSpace=wrap;rounded=0;fontSize=14;fontFamily=宋体;" vertex="1" parent="1x29o_3ZwKhWgOv2N2SG-74">
          <mxGeometry width="117.79527559055119" height="26" as="geometry" />
        </mxCell>
        <mxCell id="1x29o_3ZwKhWgOv2N2SG-63" value="" style="endArrow=classic;html=1;rounded=0;" edge="1" parent="1x29o_3ZwKhWgOv2N2SG-74" target="1x29o_3ZwKhWgOv2N2SG-5">
          <mxGeometry width="50" height="50" relative="1" as="geometry">
            <mxPoint x="130.36220472440942" y="24" as="sourcePoint" />
            <mxPoint x="-4.204724409448829" y="24" as="targetPoint" />
          </mxGeometry>
        </mxCell>
      </root>
    </mxGraphModel>
  </diagram>
</mxfile>
